# Blender v2.79 (sub 0) OBJ File: 'Box.blend'
# www.blender.org
mtllib Box.mtl
o Cube
v 1.000000 -1.000000 -1.000000
v 1.000000 -1.000000 1.000000
v -1.000000 -1.000000 1.000000
v -1.000000 -1.000000 -1.000000
v 1.000000 1.000000 -0.999999
v 0.999999 1.000000 1.000001
v -1.000000 1.000000 1.000000
v -1.000000 1.000000 -1.000000
v 1.000000 -1.000000 0.000000
v 0.000000 -1.000000 -1.000000
v 1.000000 0.000000 -1.000000
v 0.000000 -1.000000 1.000000
v 1.000000 0.000000 1.000000
v -1.000000 -1.000000 -0.000000
v -1.000000 0.000000 1.000000
v -1.000000 0.000000 -1.000000
v 1.000000 1.000000 0.000001
v 0.000000 1.000000 -1.000000
v -0.000001 1.000000 1.000000
v -1.000000 1.000000 -0.000000
v 0.000000 0.000000 -1.000000
v -1.000000 0.000000 -0.000000
v -0.000000 0.000000 1.000000
v 1.000000 0.000000 0.000000
v -0.000000 0.525652 0.000000
v 0.000000 -1.000000 -0.000000
v 1.000000 -1.000000 0.915233
v -0.500000 -1.000000 -1.000000
v 1.000000 0.500000 -1.000000
v -0.500000 -1.000000 1.000000
v 1.000000 0.500000 1.000000
v -1.000000 -1.000000 -0.877421
v -1.000000 0.500000 1.000000
v -1.000000 0.500000 -1.000000
v 1.000000 1.000000 0.915234
v -0.500000 1.000000 -1.000000
v -0.500000 1.000000 1.000000
v -1.000000 1.000000 -0.877421
v 1.000000 -1.000000 -0.877420
v 0.500000 -1.000000 -1.000000
v 1.000000 -0.500000 -1.000000
v 0.500000 -1.000000 1.000000
v 1.000000 -0.500000 1.000000
v -1.000000 -1.000000 0.915233
v -1.000000 -0.500000 1.000000
v -1.000000 -0.500000 -1.000000
v 1.000000 1.000000 -0.877420
v 0.500000 1.000000 -1.000000
v 0.499999 1.000000 1.000000
v -1.000000 1.000000 0.915233
v -0.500000 0.000000 -1.000000
v 0.500000 0.000000 -1.000000
v 0.000000 0.500000 -1.000000
v 0.000000 -0.500000 -1.000000
v -1.000000 0.000000 -0.877421
v -1.000000 0.000000 0.915233
v -1.000000 -0.500000 -0.000000
v -1.000000 0.500000 -0.000000
v -0.500000 0.000000 1.000000
v 0.500000 0.000000 1.000000
v -0.000000 -0.500000 1.000000
v -0.000000 0.500000 1.000000
v 1.000000 0.000000 0.915234
v 1.000000 0.000000 -0.877420
v 1.000000 -0.500000 0.000000
v 1.000000 0.500000 0.000000
v -0.000000 1.000000 0.915234
v 0.000000 1.000000 -0.877420
v 0.500000 0.525652 0.000000
v -0.500000 0.525652 0.000000
v -0.500000 -1.000000 -0.000000
v 0.500000 -1.000000 -0.000000
v 0.000000 -1.000000 -0.877421
v 0.000000 -1.000000 0.915233
v 0.500000 -1.000000 0.915233
v 0.500000 -1.000000 -0.877420
v -0.500000 -1.000000 -0.877421
v -0.500000 1.000000 -0.877420
v 0.500000 1.000000 -0.877420
v 0.500000 1.000000 0.915234
v 1.000000 0.500000 -0.877420
v 1.000000 -0.500000 -0.877420
v 1.000000 -0.500000 0.915234
v 0.500000 0.500000 1.000000
v 0.500000 -0.500000 1.000000
v -0.500000 -0.500000 1.000000
v -1.000000 0.500000 0.915233
v -1.000000 -0.500000 0.915233
v -1.000000 -0.500000 -0.877421
v 0.500000 -0.500000 -1.000000
v 0.500000 0.500000 -1.000000
v -0.500000 0.500000 -1.000000
v -0.500000 -0.500000 -1.000000
v -1.000000 0.500000 -0.877421
v -0.500000 0.500000 1.000000
v 1.000000 0.500000 0.915234
v -0.500000 1.000000 0.915233
v -0.500000 -1.000000 0.915233
v 1.000000 1.303515 -0.090252
v -1.000000 1.303515 -0.090252
v 0.000000 1.303515 -0.090252
v -0.500000 1.303515 -0.090252
v -1.000000 1.275180 -0.074126
v 1.000000 1.275180 -0.074125
v 0.500000 1.303515 -0.090252
v 0.000000 1.275180 -0.074126
v -0.500000 1.275180 -0.074126
v 0.500000 1.275180 -0.074125
v 0.999999 1.331474 0.155477
v -1.000000 1.331473 0.155477
v -0.000001 1.331473 0.155477
v 1.000000 1.305644 0.134711
v -0.500000 1.331473 0.155477
v 0.499999 1.331473 0.155477
v -1.000000 1.305644 0.134711
v -0.000000 1.305644 0.134711
v 0.500000 1.305644 0.134711
v -0.500000 1.305644 0.134711
vn 0.0000 -1.0000 -0.0000
vn -0.0000 0.9309 0.3654
vn 1.0000 0.0000 0.0000
vn -0.0000 0.0000 1.0000
vn -1.0000 -0.0000 -0.0000
vn 0.0000 0.0000 -1.0000
vn 0.0000 -0.9312 -0.3646
vn -0.0000 0.8797 0.4756
vn 0.4163 0.8777 0.2373
vn 0.0000 0.9486 -0.3165
vn -0.4163 0.8777 0.2373
vn -0.4173 0.8797 -0.2280
vn 0.0000 0.8878 -0.4602
vn 0.4173 0.8797 -0.2280
vn 0.0000 0.4946 0.8691
vn -0.0000 -0.9460 0.3241
vn 0.0000 0.6266 -0.7794
usemtl Material
s off
f 98//1 30//1 3//1 44//1
f 37//2 19//2 111//2 113//2
f 96//3 35//3 6//3 31//3
f 95//4 37//4 7//4 33//4
f 94//5 38//5 8//5 34//5
f 93//6 28//6 4//6 46//6
f 92//6 51//6 16//6 34//6
f 91//6 52//6 21//6 53//6
f 90//6 40//6 10//6 54//6
f 89//5 55//5 16//5 46//5
f 88//5 56//5 22//5 57//5
f 87//5 50//5 20//5 58//5
f 86//4 59//4 15//4 45//4
f 85//4 60//4 23//4 61//4
f 84//4 49//4 19//4 62//4
f 83//3 63//3 13//3 43//3
f 82//3 64//3 24//3 65//3
f 81//3 47//3 17//3 66//3
f 80//7 67//7 116//7 117//7
f 79//8 68//8 25//8 69//8
f 78//9 38//9 20//9 70//9
f 77//1 71//1 14//1 32//1
f 76//1 72//1 26//1 73//1
f 75//1 42//1 12//1 74//1
f 72//1 75//1 74//1 26//1
f 9//1 27//1 75//1 72//1
f 27//1 2//1 42//1 75//1
f 40//1 76//1 73//1 10//1
f 1//1 39//1 76//1 40//1
f 39//1 9//1 72//1 76//1
f 28//1 77//1 32//1 4//1
f 10//1 73//1 77//1 28//1
f 73//1 26//1 71//1 77//1
f 68//8 78//8 70//8 25//8
f 5//10 48//10 105//10 99//10
f 8//5 38//5 103//5 100//5
f 47//11 79//11 69//11 17//11
f 48//10 18//10 101//10 105//10
f 47//3 5//3 99//3 104//3
f 97//7 50//7 115//7 118//7
f 17//12 69//12 80//12 35//12
f 69//13 25//13 67//13 80//13
f 64//3 81//3 66//3 24//3
f 11//3 29//3 81//3 64//3
f 29//3 5//3 47//3 81//3
f 39//3 82//3 65//3 9//3
f 1//3 41//3 82//3 39//3
f 41//3 11//3 64//3 82//3
f 27//3 83//3 43//3 2//3
f 9//3 65//3 83//3 27//3
f 65//3 24//3 63//3 83//3
f 60//4 84//4 62//4 23//4
f 13//4 31//4 84//4 60//4
f 31//4 6//4 49//4 84//4
f 42//4 85//4 61//4 12//4
f 2//4 43//4 85//4 42//4
f 43//4 13//4 60//4 85//4
f 30//4 86//4 45//4 3//4
f 12//4 61//4 86//4 30//4
f 61//4 23//4 59//4 86//4
f 56//5 87//5 58//5 22//5
f 15//5 33//5 87//5 56//5
f 33//5 7//5 50//5 87//5
f 44//5 88//5 57//5 14//5
f 3//5 45//5 88//5 44//5
f 45//5 15//5 56//5 88//5
f 32//5 89//5 46//5 4//5
f 14//5 57//5 89//5 32//5
f 57//5 22//5 55//5 89//5
f 52//6 90//6 54//6 21//6
f 11//6 41//6 90//6 52//6
f 41//6 1//6 40//6 90//6
f 48//6 91//6 53//6 18//6
f 5//6 29//6 91//6 48//6
f 29//6 11//6 52//6 91//6
f 36//6 92//6 34//6 8//6
f 18//6 53//6 92//6 36//6
f 53//6 21//6 51//6 92//6
f 51//6 93//6 46//6 16//6
f 21//6 54//6 93//6 51//6
f 54//6 10//6 28//6 93//6
f 55//5 94//5 34//5 16//5
f 22//5 58//5 94//5 55//5
f 58//5 20//5 38//5 94//5
f 59//4 95//4 33//4 15//4
f 23//4 62//4 95//4 59//4
f 62//4 19//4 37//4 95//4
f 63//3 96//3 31//3 13//3
f 24//3 66//3 96//3 63//3
f 66//3 17//3 35//3 96//3
f 7//2 37//2 113//2 110//2
f 25//13 70//13 97//13 67//13
f 70//14 20//14 50//14 97//14
f 71//1 98//1 44//1 14//1
f 26//1 74//1 98//1 71//1
f 74//1 12//1 30//1 98//1
f 101//15 102//15 107//15 106//15
f 102//15 100//15 103//15 107//15
f 99//15 105//15 108//15 104//15
f 105//15 101//15 106//15 108//15
f 78//16 68//16 106//16 107//16
f 79//16 47//16 104//16 108//16
f 38//16 78//16 107//16 103//16
f 36//10 8//10 100//10 102//10
f 18//10 36//10 102//10 101//10
f 68//16 79//16 108//16 106//16
f 118//17 115//17 110//17 113//17
f 117//17 116//17 111//17 114//17
f 112//17 117//17 114//17 109//17
f 116//17 118//17 113//17 111//17
f 6//3 35//3 112//3 109//3
f 19//2 49//2 114//2 111//2
f 49//2 6//2 109//2 114//2
f 35//7 80//7 117//7 112//7
f 67//7 97//7 118//7 116//7
f 50//5 7//5 110//5 115//5
