# Blender v2.79 (sub 0) OBJ File: 'untitled.blend'
# www.blender.org
mtllib Coat for rack.mtl
o Cube
v 1.576403 2.182240 -0.562520
v 1.473999 2.191859 1.458931
v -1.473999 2.191859 1.458931
v -1.576402 2.182240 -0.562521
v 0.554449 4.191859 -0.554449
v 0.554448 4.191859 0.554449
v -0.554449 4.191859 0.554449
v -0.554449 4.191859 -0.554449
v 2.132273 1.378682 -0.542675
v 2.132273 1.378682 2.009650
v -1.881063 0.609771 2.009650
v -1.881061 0.609771 -0.542676
v 2.511796 -0.656537 -0.542675
v 2.511796 -0.656537 2.009650
v -2.260586 -1.425448 2.009649
v -2.260582 -1.425448 -0.542675
v 2.459145 -4.236320 -0.476013
v 2.459145 -4.236320 1.942986
v -2.459145 -4.236320 1.942993
v -2.459141 -4.236320 -0.476017
v 3.751241 -0.938661 0.064417
v 2.866970 -1.764164 1.689803
v 2.866971 -1.764164 -0.222828
v 3.396068 0.168966 0.064417
v 3.396067 0.168966 1.402558
v 2.734215 1.029257 1.402558
v 2.462499 1.216609 -0.041109
v 2.462499 1.216609 1.508083
v 2.734216 1.029257 0.064417
v 2.721082 0.186743 1.756300
v 2.721083 0.186743 -0.289324
v 3.751241 -0.938661 1.402558
v 3.264038 -1.506491 1.756298
v 3.264038 -1.506491 -0.289330
v 3.751241 -2.667836 0.064417
v 2.866970 -3.493340 1.442896
v 2.866970 -3.493340 0.024078
v 3.751241 -2.667836 1.402558
v 3.264038 -3.235666 1.756298
v 3.264038 -3.235666 -0.289330
v 3.751241 -5.022758 0.064417
v 2.866970 -5.151620 1.442896
v 2.866970 -5.151620 0.024078
v 3.751241 -5.022758 1.402558
v 3.264038 -5.056349 1.756299
v 3.264038 -5.289339 -0.289324
v 2.459145 -7.493989 -0.476017
v 2.459145 -7.493989 1.942993
v -2.459143 -7.493989 1.942991
v -2.459142 -7.493989 -0.476017
v 2.439181 -8.465607 -0.476017
v 2.439181 -8.465607 1.942992
v -2.439182 -7.840212 1.942991
v -2.439180 -7.840212 -0.476017
v 2.062997 -9.803865 -0.348884
v 2.062997 -9.803865 1.815858
v -2.062997 -8.271627 1.815858
v -2.062996 -8.271627 -0.411963
v 1.623792 2.419573 0.452094
v 3.073286 0.197269 1.606523
v 0.940186 3.122153 -0.257828
v -0.000000 2.500788 1.812754
v 1.058233 3.231743 1.050140
v -1.663106 2.360970 0.454364
v -1.087567 3.259181 1.080990
v -0.903965 3.104063 -0.339616
v 0.512000 4.140776 0.000000
v 0.000000 4.249037 -0.470113
v -0.000000 4.299661 0.615817
v -0.512000 4.140776 -0.000000
v 2.588083 1.785531 0.733487
v 0.074383 1.261581 2.572958
v -2.392947 0.769914 0.733487
v 1.807072 1.801705 1.753853
v 1.924487 1.827217 -0.624287
v -1.890737 1.425094 -0.734767
v -1.711731 1.421710 1.769037
v 3.464239 -0.907114 0.733487
v 0.107335 -0.927596 2.615799
v -2.776213 -1.365386 0.733487
v -2.087992 -0.404637 -0.560277
v -2.101161 -0.402181 2.040792
v 2.373045 0.370585 -0.633488
v 2.379176 0.371728 2.115661
v 2.959246 -4.245261 0.733487
v -0.000000 -4.231767 2.972130
v -2.949877 -4.223742 0.733487
v -2.376191 -2.830108 1.992235
v 2.477286 -2.445898 1.954277
v 2.477291 -2.445898 -0.487301
v -2.376187 -2.830108 -0.525260
v 2.837479 1.127693 0.733487
v 2.322484 1.302440 -0.306866
v 3.545890 0.244292 0.733487
v 3.090442 0.618576 0.048170
v 2.651301 0.727151 1.675893
v 3.090442 0.618576 1.418805
v 2.651301 0.727151 -0.208919
v 2.325671 1.305952 1.774805
v 3.605082 -0.374770 1.420477
v 2.632842 -0.227275 1.921892
v 0.000106 4.588246 0.097161
v 1.167510 3.498977 0.250195
v -1.178712 3.490724 0.217939
v 2.632842 -0.227275 -0.454917
v -0.568598 4.521487 0.012436
v 0.000106 4.641738 -0.509742
v 2.553612 1.320027 0.733487
v 0.568810 4.521487 0.012437
v -1.234060 3.467989 -0.364793
v -1.521909 2.866352 0.416974
v 1.251476 3.474608 -0.273946
v 2.599792 1.124459 1.456304
v 3.073286 0.197268 -0.139548
v 2.599792 1.124460 0.010671
v 3.547242 -1.226162 1.628216
v 2.518608 -1.832586 0.733487
v 3.917696 -0.909599 0.733487
v 2.885720 -2.626937 1.553641
v 3.053137 -1.632607 1.786353
v 3.053137 -1.632607 -0.319379
v 3.547242 -1.226162 -0.161241
v 3.605082 -0.374770 0.046498
v 3.002899 -0.656559 -0.314082
v 2.722093 -1.198105 -0.376670
v 2.722093 -1.198106 1.843645
v 3.002898 -0.656559 1.781058
v 3.548151 -2.948174 1.640965
v 2.696052 -3.495632 0.733487
v 3.911926 -2.667836 0.733487
v 2.749109 -4.322480 -0.029738
v 3.027285 -3.376274 1.657698
v 3.027285 -3.376274 -0.190723
v 3.548151 -2.948174 -0.173991
v 3.265399 -2.371079 1.764420
v 3.780103 -1.803249 1.418365
v 3.780103 -1.803249 0.048610
v 3.265399 -2.371079 -0.297447
v 2.885722 -2.626937 -0.086666
v 3.543515 -5.082629 1.624749
v 2.770611 -5.231050 0.733487
v 3.854637 -5.088226 0.733487
v 3.284082 -4.198112 0.788991
v 3.043657 -5.141559 1.638699
v 3.029817 -5.262187 -0.159509
v 3.558418 -5.200162 -0.149145
v 2.740505 -4.322480 1.504203
v 3.890981 -3.845297 0.003484
v 3.275184 -4.262502 -0.492247
v 3.265401 -4.146008 1.887388
v 3.899392 -3.845297 1.470771
v 2.957806 -7.499111 0.733487
v -0.000000 -7.514387 2.969881
v -2.953536 -7.508230 0.733487
v -2.470478 -5.865155 1.954069
v 2.457588 -5.865155 1.941441
v 2.457607 -5.865155 -0.474472
v -2.470474 -5.865155 -0.487095
v 2.912467 -8.567640 0.733487
v -0.034242 -8.420012 2.860208
v -2.861925 -8.015926 0.733487
v 2.461872 -7.980060 -0.488375
v -2.457733 -7.667594 -0.484083
v -2.457735 -7.667594 1.951058
v 2.461870 -7.980060 1.955349
v 2.194976 -10.084835 0.733487
v -0.124759 -9.373695 2.122435
v -2.253134 -8.560871 0.733487
v -2.268267 -8.077324 1.901229
v 2.337310 -9.168028 1.974736
v 2.337309 -9.168028 -0.507761
v -2.268266 -8.077324 -0.434255
v -2.598619 -8.334301 0.733487
v 2.733711 -9.411356 0.733487
v -2.930973 -7.766271 0.733487
v 2.962180 -8.034523 0.733487
v -0.016786 -7.971256 2.948440
v -0.081454 -8.953079 2.564243
v -2.974051 -5.865961 0.733487
v 2.955433 -5.872184 0.733487
v 2.923678 -4.322014 -0.334772
v 3.642025 -4.016718 1.778738
v 4.058060 -3.882168 0.734443
v 2.954970 -4.261118 1.783397
v 3.641621 -3.983663 0.767087
v 2.975472 -4.045129 0.765093
v 3.561718 -2.087034 -0.184800
v 2.644884 -2.660102 0.733487
v 3.044618 -2.503820 -0.245749
v 3.561717 -2.087034 1.651774
v 2.581646 -4.369858 0.733897
v 3.680695 -4.075394 -0.325287
v 2.849104 -0.927322 1.845927
v 3.334564 -0.505940 1.644580
v 2.930405 -1.307502 0.733487
v 3.334565 -0.505940 -0.177605
v 3.044618 -2.503819 1.712728
v 3.953614 -1.788845 0.733487
v 2.876277 0.680175 -0.086520
v 2.697655 1.226974 0.733487
v 3.774132 -0.319011 0.733487
v 3.224418 0.712242 0.733487
v 2.562348 1.553409 0.733792
v 1.482320 2.919915 0.414899
v -0.615749 4.578228 -0.603418
v 2.876276 0.680175 1.553495
v 0.615961 4.578228 -0.603418
v -1.442661 2.702992 -0.512460
v 1.439005 2.702992 -0.512459
v -2.895326 -2.792602 0.733487
v 3.111733 -2.561058 0.733487
v -0.000021 -5.873083 2.978848
v 2.534848 0.564631 -0.449302
v 0.075168 0.168958 2.706893
v 0.064833 -2.579786 2.796359
v 2.849104 -0.927322 -0.378952
v 0.031772 1.908985 2.238703
v -2.167729 1.636936 0.636167
v -2.634859 -0.288711 0.733225
v 2.537815 0.566817 1.923792
v -1.061281 3.212788 0.358816
v -0.009089 3.475382 1.249058
v 1.051005 3.220218 0.387856
v -0.000000 4.200879 0.076277
v 2.146163 2.165749 0.597341
v 1.485297 -7.620422 0.313872
v 1.485297 -7.620422 1.212099
v -0.226723 -6.984643 1.212099
v -0.226723 -6.984643 0.287698
v 1.540059 -7.737006 0.762985
v 0.577520 -7.441929 0.265184
v 0.577520 -7.441929 1.339309
v -0.305618 -7.104660 0.762985
v 0.533252 -7.665920 0.762985
vn 0.1976 -0.1845 -0.9628
vn -0.3765 0.1107 -0.9198
vn 0.1596 -0.0992 -0.9822
vn -0.1596 -0.0991 -0.9822
vn -0.1097 -0.1543 -0.9819
vn 0.2484 0.0823 -0.9652
vn 0.6438 0.7648 0.0237
vn 0.3923 0.6885 0.6099
vn 0.5091 0.4037 0.7601
vn 0.8598 0.5085 0.0468
vn 0.0000 0.7476 0.6641
vn -0.2877 0.5491 0.7847
vn -0.5230 0.8075 0.2727
vn 0.0079 0.9197 0.3926
vn 0.6327 0.4739 0.6124
vn 0.2633 0.5503 0.7923
vn 0.5337 0.7962 0.2850
vn 0.6513 0.5628 0.5089
vn 0.0090 0.5370 0.8435
vn -0.6516 0.5618 0.5097
vn 0.0000 0.6503 0.7596
vn -0.4507 0.6547 0.6068
vn 0.7560 0.2122 0.6192
vn 0.5828 0.0728 0.8093
vn 0.6009 0.1673 0.7815
vn 0.6664 0.3465 0.6602
vn -0.9836 0.1802 -0.0031
vn -0.9062 0.1655 -0.3892
vn -0.9178 0.1041 -0.3831
vn -0.9939 0.1102 -0.0016
vn -0.9317 0.3575 0.0636
vn -0.9288 0.2642 -0.2596
vn -0.9295 0.1344 -0.3434
vn -0.9772 0.2088 0.0381
vn -0.0508 0.5307 0.8460
vn -0.6362 0.4184 0.6482
vn -0.6451 0.2394 0.7256
vn -0.0465 0.3063 0.9508
vn 0.3060 -0.0113 -0.9519
vn 0.3811 0.1071 -0.9183
vn 0.2624 0.0208 -0.9647
vn -0.0668 -0.0834 -0.9943
vn 0.0039 0.0494 0.9987
vn -0.6851 0.0640 0.7256
vn -0.7089 0.0300 0.7046
vn -0.0023 0.0266 0.9996
vn -0.0239 0.0381 0.9990
vn -0.6601 0.0996 0.7445
vn -0.6719 0.0698 0.7373
vn 0.0028 -0.0059 1.0000
vn 0.7456 0.2112 -0.6320
vn 0.8451 0.2763 -0.4576
vn 0.8262 0.4309 -0.3628
vn 0.6593 0.3466 -0.6672
vn 0.0015 -0.0003 1.0000
vn -0.7091 0.0001 0.7051
vn -0.7130 -0.0197 0.7009
vn 0.0042 -0.0091 0.9999
vn 0.9964 -0.0847 0.0000
vn 0.6381 -0.0236 0.7695
vn 0.6949 -0.0028 0.7191
vn 0.9996 -0.0261 0.0000
vn -0.9981 0.0608 0.0000
vn -0.9236 0.0564 -0.3793
vn -0.9251 0.0249 -0.3789
vn -0.9996 0.0268 0.0000
vn 0.4700 0.3319 -0.8179
vn 0.7427 0.3031 -0.5971
vn 0.5722 0.4536 0.6832
vn 0.7130 0.3591 0.6022
vn 0.0000 0.7654 -0.6435
vn -0.4069 0.6275 -0.6637
vn 0.5205 0.3838 0.7627
vn 0.4649 0.2406 0.8520
vn 0.7497 0.3886 0.5356
vn 0.6920 0.5115 0.5093
vn 0.9724 0.2331 -0.0004
vn 0.8461 0.2831 0.4516
vn 0.8305 0.4275 0.3569
vn 0.8387 0.5445 -0.0010
vn 0.7867 0.6173 0.0000
vn 0.8834 0.4686 0.0000
vn 0.9520 0.3061 0.0000
vn 0.7921 0.2620 0.5512
vn 0.8465 0.1332 0.5155
vn 0.9900 0.1408 0.0000
vn 0.5893 0.8079 0.0000
vn 0.5817 0.6661 0.4667
vn 0.6390 0.6514 0.4089
vn 0.6765 0.7364 0.0000
vn 0.5205 0.3838 -0.7627
vn 0.5817 0.6661 -0.4667
vn 0.6390 0.6514 -0.4089
vn 0.6920 0.5115 -0.5093
vn 1.0000 -0.0011 0.0000
vn 0.8775 0.0078 0.4794
vn 0.8867 0.0312 0.4613
vn 0.9991 0.0426 -0.0017
vn -0.4216 -0.0619 0.9047
vn -0.8480 -0.0728 0.5249
vn -0.9046 0.0699 0.4203
vn -0.5963 0.0591 0.8006
vn 0.4680 0.1589 -0.8693
vn 0.7921 0.2620 -0.5512
vn 0.8465 0.1332 -0.5155
vn 0.5414 0.0676 -0.8380
vn -0.9483 0.3173 0.0000
vn -0.7437 0.1478 -0.6519
vn -0.7786 -0.0305 -0.6267
vn -0.9988 0.0480 0.0000
vn 0.4680 0.1589 0.8693
vn 0.3811 0.1071 0.9183
vn 0.2624 0.0208 0.9647
vn 0.5414 0.0676 0.8380
vn 0.3060 -0.0113 0.9519
vn -0.7437 0.1478 0.6519
vn -0.7786 -0.0305 0.6267
vn -0.0668 -0.0833 0.9943
vn 0.6095 -0.0050 -0.7927
vn 0.9025 0.0220 -0.4301
vn 0.7014 -0.6327 -0.3281
vn 0.6017 -0.7828 -0.1586
vn -0.9996 -0.0275 -0.0031
vn -0.9275 -0.0108 -0.3736
vn -0.6139 -0.6843 -0.3935
vn -0.1602 -0.9868 0.0252
vn 0.5758 -0.0003 0.8176
vn 0.1339 -0.0207 0.9908
vn -0.0328 0.0699 0.9970
vn 0.5425 0.0635 0.8376
vn -0.4216 -0.0619 -0.9047
vn 0.1339 -0.0207 -0.9908
vn -0.0301 0.0893 -0.9955
vn -0.6168 0.0711 -0.7839
vn -0.9973 -0.0739 0.0000
vn -0.8480 -0.0728 -0.5249
vn -0.9120 0.0703 -0.4039
vn -0.9984 0.0555 -0.0017
vn 0.5758 -0.0003 -0.8176
vn 0.8775 0.0078 -0.4794
vn 0.8891 0.0311 -0.4566
vn 0.5599 0.0714 -0.8254
vn 0.5644 -0.8244 0.0420
vn -0.5040 -0.8436 -0.1853
vn 0.0256 -0.9044 -0.4259
vn 0.0876 -0.9961 -0.0053
vn -0.4823 -0.8755 0.0295
vn 0.2368 -0.9710 0.0323
vn -0.5994 -0.0154 0.8003
vn -0.9078 -0.0213 0.4187
vn -0.3249 -0.8281 0.4567
vn -0.2244 -0.9007 0.3720
vn 0.9998 -0.0160 -0.0030
vn 0.8886 0.0139 0.4583
vn 0.5015 -0.7622 0.4092
vn 0.5435 -0.0076 0.8394
vn -0.0326 -0.0045 0.9995
vn 0.0574 -0.8665 0.4957
vn 0.4020 -0.8680 0.2915
vn -0.6667 -0.0162 -0.7451
vn -0.0232 -0.0226 -0.9995
vn 1.0000 -0.0002 0.0000
vn 0.7094 -0.0003 0.7048
vn 0.7093 -0.0010 0.7049
vn 1.0000 0.0067 0.0000
vn -1.0000 0.0005 0.0000
vn -0.9252 0.0005 -0.3793
vn -0.9262 -0.0275 -0.3759
vn -0.9995 -0.0295 0.0000
vn -0.1256 -0.4828 0.8667
vn -0.5582 -0.5980 0.5751
vn -0.2594 -0.9337 0.2469
vn -0.2859 -0.9549 -0.0796
vn -0.0086 -0.0768 0.9970
vn -0.7092 -0.1015 0.6977
vn -0.6841 -0.3407 0.6448
vn -0.0377 -0.2454 0.9687
vn 0.9995 -0.0327 0.0000
vn 0.7032 -0.0506 0.7091
vn 0.6955 -0.1561 0.7013
vn 0.9922 -0.1245 0.0000
vn -0.9915 -0.1303 0.0000
vn -0.9228 -0.1180 -0.3667
vn -0.8468 -0.3931 -0.3584
vn -0.9029 -0.4299 0.0000
vn 0.9259 -0.3776 0.0000
vn 0.6044 -0.3874 0.6962
vn -0.0064 -0.9488 0.3159
vn -0.0862 -0.9962 0.0003
vn -0.6896 -0.7242 0.0017
vn -0.6577 -0.6787 -0.3266
vn -0.0178 -0.9653 -0.2604
vn -0.0486 -0.9988 0.0033
vn 0.8831 -0.3289 -0.3345
vn 0.0426 -0.9419 -0.3332
vn 0.9247 -0.1144 -0.3630
vn 0.1116 -0.9937 -0.0018
vn -0.0227 -0.9490 -0.3144
vn -0.5564 -0.7508 -0.3560
vn -0.7230 -0.6908 -0.0064
vn -0.2985 -0.8117 -0.5021
vn 0.9255 -0.0287 -0.3776
vn 0.9248 0.0062 -0.3804
vn 0.9244 -0.0002 -0.3813
vn 0.9147 -0.0239 -0.4033
vn 0.3981 0.0125 0.9172
vn 0.8144 0.5802 0.0000
vn 0.5036 0.0447 -0.8628
vn 0.5932 0.1689 -0.7871
vn 0.4649 0.2406 -0.8520
vn 0.7497 0.3886 -0.5356
vn 0.7912 0.3822 -0.4773
vn 0.4106 0.6220 -0.6667
vn 0.4401 0.6576 0.6113
vn -0.8928 0.4453 0.0669
vn -0.6240 0.4774 0.6186
vn -0.5956 0.4557 0.6615
vn -0.7006 0.3749 0.6071
vn -0.7034 0.2998 -0.6444
vn 0.7746 0.6295 0.0602
vn -0.5250 0.2893 -0.8004
vn -0.8712 0.3952 -0.2911
vn 0.8688 -0.0759 -0.4892
vn 0.5693 0.0767 -0.8185
vn 0.6619 0.1204 -0.7398
vn 0.4795 0.0754 0.8743
vn 0.4612 0.6923 0.5549
vn -0.0138 0.5292 0.8484
vn -0.6200 0.5262 0.5820
vn 0.7203 0.6104 -0.3294
vn 0.6905 0.6465 -0.3244
vn -0.3267 -0.9451 -0.0092
vn -0.3219 -0.8807 -0.3473
vn 0.0568 -0.9611 -0.2701
vn -0.6237 -0.7583 -0.1894
usemtl Material
s off
f 61//1 5//1 207//1 112//1
f 1//2 61//2 112//2 209//2
f 68//3 8//3 205//3 107//3
f 5//4 68//4 107//4 207//4
f 8//5 66//5 110//5 205//5
f 66//6 4//6 208//6 110//6
s 1
f 225//7 74//8 10//9 71//10
f 224//11 70//12 7//13 69//14
f 223//15 67//16 6//17 63//18
f 222//19 69//14 7//13 65//20
f 70//12 224//11 102//21 106//22
f 220//23 101//24 30//25 96//26
f 219//27 81//28 16//29 80//30
f 218//31 76//32 12//33 73//34
f 217//35 77//36 11//37 72//38
f 216//39 124//40 34//41 121//42
f 215//43 88//44 19//45 86//46
f 214//47 82//48 15//49 79//50
f 213//51 93//52 27//53 98//54
f 212//55 155//56 49//57 153//58
f 211//59 89//60 18//61 85//62
f 210//63 91//64 20//65 87//66
f 209//67 112//68 103//69 204//70
f 107//71 205//72 106//22 102//21
f 206//73 60//74 25//75 97//76
f 203//77 99//78 28//79 108//80
f 202//81 97//76 25//75 94//82
f 201//83 100//84 32//85 118//86
f 200//87 113//88 26//89 92//90
f 199//91 115//92 29//93 95//94
f 198//95 136//96 38//97 130//98
f 197//99 119//100 36//101 132//102
f 196//103 123//104 21//105 122//106
f 195//107 125//108 23//109 117//110
f 194//111 127//112 33//113 116//114
f 193//115 126//116 22//117 120//118
f 192//119 148//120 41//121 146//122
f 191//123 131//124 43//125 141//126
f 190//127 135//128 39//129 128//130
f 189//131 138//132 40//133 133//134
f 188//135 139//136 37//137 129//138
f 187//139 137//140 35//141 134//142
f 186//143 145//144 46//145 143//146
f 185//147 146//122 41//121 142//148
f 184//149 147//150 42//151 144//152
f 183//153 151//154 44//155 142//148
f 182//156 150//157 45//158 140//159
f 181//160 149//161 46//145 145//144
f 180//162 156//163 48//164 152//165
f 179//166 158//167 50//168 154//169
f 178//170 169//171 57//172 167//173
f 177//174 164//175 53//176 160//177
f 176//178 165//179 52//180 159//181
f 175//182 163//183 54//184 161//185
f 174//186 170//187 56//188 166//189
f 173//190 172//191 58//192 168//193
f 169//171 173//190 168//193 57//172
f 53//176 161//185 173//190 169//171
f 161//185 54//184 172//191 173//190
f 171//194 174//186 166//189 55//195
f 51//196 159//181 174//186 171//194
f 159//181 52//180 170//187 174//186
f 57//172 168//193 233//197 228//198
f 166//189 56//188 227//199 230//200
f 167//173 57//172 228//198 232//201
f 164//175 175//182 161//185 53//176
f 49//57 154//169 175//182 164//175
f 154//169 50//168 163//183 175//182
f 162//202 176//178 159//181 51//196
f 47//203 152//165 176//178 162//202
f 152//165 48//164 165//179 176//178
f 165//179 177//174 160//177 52//180
f 48//164 153//58 177//174 165//179
f 153//58 49//57 164//175 177//174
f 170//187 178//170 167//173 56//188
f 52//180 160//177 178//170 170//187
f 160//177 53//176 169//171 178//170
f 155//56 179//166 154//169 49//57
f 19//45 87//66 179//166 155//56
f 87//66 20//65 158//167 179//166
f 157//204 180//162 152//165 47//203
f 17//205 85//62 180//162 157//204
f 85//62 18//61 156//163 180//162
f 131//124 181//160 145//144 43//125
f 37//137 133//134 181//160 131//124
f 133//134 40//133 149//161 181//160
f 151//154 182//156 140//159 44//155
f 38//97 128//130 182//156 151//154
f 128//130 39//129 150//157 182//156
f 148//120 183//153 142//148 41//121
f 35//141 130//98 183//153 148//120
f 130//98 38//97 151//154 183//153
f 150//157 184//149 144//152 45//158
f 39//129 132//102 184//149 150//157
f 132//102 36//101 147//150 184//149
f 140//159 185//147 142//148 44//155
f 45//158 143//146 185//147 140//159
f 143//146 46//145 146//122 185//147
f 144//152 186//143 143//146 45//158
f 42//151 141//126 186//143 144//152
f 141//126 43//125 145//144 186//143
f 138//132 187//139 134//142 40//133
f 34//41 122//106 187//139 138//132
f 122//106 21//105 137//140 187//139
f 119//100 188//135 129//138 36//101
f 22//117 117//110 188//135 119//100
f 117//110 23//109 139//136 188//135
f 139//136 189//131 133//134 37//137
f 23//109 121//42 189//131 139//136
f 121//42 34//41 138//132 189//131
f 136//96 190//127 128//130 38//97
f 32//85 116//114 190//127 136//96
f 116//114 33//113 135//128 190//127
f 147//150 191//123 141//126 42//151
f 36//101 129//138 191//123 147//150
f 129//138 37//137 131//124 191//123
f 149//161 192//119 146//122 46//145
f 40//133 134//142 192//119 149//161
f 134//142 35//141 148//120 192//119
f 127//112 193//115 120//118 33//113
f 30//25 101//24 193//115 127//112
f 101//24 14//206 126//116 193//115
f 100//84 194//111 116//114 32//85
f 25//75 60//74 194//111 100//84
f 60//74 30//25 127//112 194//111
f 126//116 195//107 117//110 22//117
f 14//206 78//207 195//107 126//116
f 78//207 13//208 125//108 195//107
f 124//40 196//103 122//106 34//41
f 31//209 114//210 196//103 124//40
f 114//210 24//211 123//104 196//103
f 135//128 197//99 132//102 39//129
f 33//113 120//118 197//99 135//128
f 120//118 22//117 119//100 197//99
f 137//140 198//95 130//98 35//141
f 21//105 118//86 198//95 137//140
f 118//86 32//85 136//96 198//95
f 114//210 199//91 95//94 24//211
f 31//209 98//54 199//91 114//210
f 98//54 27//53 115//92 199//91
f 115//92 200//87 92//90 29//93
f 27//53 108//80 200//87 115//92
f 108//80 28//79 113//88 200//87
f 123//104 201//83 118//86 21//105
f 24//211 94//82 201//83 123//104
f 94//82 25//75 100//84 201//83
f 95//94 202//81 94//82 24//211
f 29//93 92//90 202//81 95//94
f 92//90 26//89 97//76 202//81
f 93//52 203//77 108//80 27//53
f 9//212 71//10 203//77 93//52
f 71//10 10//9 99//78 203//77
f 112//68 207//213 109//214 103//69
f 207//213 107//71 102//21 109//214
f 113//88 206//73 97//76 26//89
f 28//79 96//26 206//73 113//88
f 96//26 30//25 60//74 206//73
f 64//215 221//216 104//217 111//218
f 104//217 106//22 205//72 110//219
f 67//16 223//15 103//69 109//214
f 223//15 59//220 204//70 103//69
f 111//218 104//217 110//219 208//221
f 221//216 70//12 106//22 104//217
f 4//222 64//215 111//218 208//221
f 88//44 210//63 87//66 19//45
f 15//49 80//30 210//63 88//44
f 80//30 16//29 91//64 210//63
f 90//223 211//59 85//62 17//205
f 13//208 78//207 211//59 90//223
f 78//207 14//206 89//60 211//59
f 156//163 212//55 153//58 48//164
f 18//61 86//46 212//55 156//163
f 86//46 19//45 155//56 212//55
f 105//224 213//51 98//54 31//209
f 13//208 83//225 213//51 105//224
f 83//225 9//212 93//52 213//51
f 84//226 214//47 79//50 14//206
f 10//9 72//38 214//47 84//226
f 72//38 11//37 82//48 214//47
f 89//60 215//43 86//46 18//61
f 14//206 79//50 215//43 89//60
f 79//50 15//49 88//44 215//43
f 125//108 216//39 121//42 23//109
f 13//208 105//224 216//39 125//108
f 105//224 31//209 124//40 216//39
f 74//8 217//35 72//38 10//9
f 2//227 62//228 217//35 74//8
f 62//228 3//229 77//36 217//35
f 77//36 218//31 73//34 11//37
f 3//229 64//215 218//31 77//36
f 64//215 4//222 76//32 218//31
f 82//48 219//27 80//30 15//49
f 11//37 73//34 219//27 82//48
f 73//34 12//33 81//28 219//27
f 99//78 220//23 96//26 28//79
f 10//9 84//226 220//23 99//78
f 84//226 14//206 101//24 220//23
f 3//229 65//20 221//216 64//215
f 65//20 7//13 70//12 221//216
f 62//228 222//19 65//20 3//229
f 2//227 63//18 222//19 62//228
f 63//18 6//17 69//14 222//19
f 59//220 223//15 63//18 2//227
f 224//11 67//16 109//214 102//21
f 67//16 224//11 69//14 6//17
f 59//220 1//230 209//67 204//70
f 75//231 225//7 71//10 9//212
f 1//230 59//220 225//7 75//231
f 59//220 2//227 74//8 225//7
f 234//232 232//201 228//198 233//197
f 231//233 234//232 233//197 229//234
f 226//235 230//200 234//232 231//233
f 230//200 227//199 232//201 234//232
f 168//193 58//192 229//234 233//197
f 56//188 167//173 232//201 227//199
f 55//195 166//189 230//200 226//235
