# Blender v2.79 (sub 0) OBJ File: 'floorplan.blend'
# www.blender.org
mtllib floorplan.mtl
o Plane
v 8.003414 0.000000 8.003414
v -8.003414 0.000000 -8.003414
v 8.003414 0.000000 -8.003414
v -8.003414 0.000000 -2.501067
v 2.501067 0.000000 8.003414
v 8.003414 0.000000 2.000854
v 1.000427 0.000000 -8.003414
v -2.000854 0.000000 -8.003414
v -8.003414 0.000000 -3.001280
v -2.501067 0.000000 8.003414
v 4.501921 0.000000 -8.003414
v -5.002134 0.000000 -8.003414
v -2.000854 0.000000 8.003414
v -6.002561 0.000000 -0.220094
v -8.003414 0.000000 -5.502347
v -6.002561 0.000000 8.003414
v 6.282681 0.000000 2.000854
v -6.002561 0.000000 0.500213
v -2.000854 0.000000 5.002134
v -6.002561 0.000000 -2.501067
v -6.002561 0.000000 5.002134
v -2.000854 0.000000 -6.282681
v 3.001280 0.000000 8.003414
v 8.003414 0.000000 -3.001280
v -8.003414 0.000000 -5.002134
v 5.002134 0.000000 -8.003414
v -4.001707 0.000000 -3.001280
v 5.002134 0.000000 2.000854
v 5.002134 0.000000 -4.001707
v -8.003414 0.000000 5.002134
v 0.000000 0.000000 -5.002134
v 2.501067 0.000000 3.001280
v 3.001280 0.000000 0.220094
v 3.001280 0.000000 0.500213
v -3.781613 0.000000 3.001280
v -6.002561 0.000000 -5.002134
v 4.501921 0.000000 -5.002134
v 6.502774 0.000000 -3.001280
v 3.001280 0.000000 -3.001280
v -4.722014 0.000000 -3.001280
v -5.002134 0.000000 -5.502347
v 3.001280 0.000000 5.742449
v 7.002987 0.000000 2.000854
v -2.000854 0.000000 3.001280
v -2.000854 0.000000 -7.002987
v 5.002134 0.000000 -6.282681
v 5.002134 0.000000 -7.002987
v -1.000427 0.000000 3.001280
v -4.501921 0.000000 3.001280
v -6.722867 0.000000 -5.002134
v -7.223082 0.000000 -3.001280
v 5.002134 0.000000 -3.001280
v 7.223081 0.000000 -3.001280
v -5.002134 0.000000 -7.002987
v 3.001280 0.000000 5.002134
v 8.003414 0.000000 -3.501494
v 4.501921 0.000000 -4.001707
v 8.003414 0.000000 2.501067
v 0.000000 0.000000 -5.502347
v -0.260111 0.000000 2.501067
v -5.502347 0.000000 -0.220094
v 2.501067 0.000000 0.220094
v -1.500640 0.000000 -8.003414
v -3.781613 0.000000 2.501067
v -5.502347 0.000000 3.001280
v -2.000854 0.000000 -5.502347
v 4.501921 0.000000 -5.502347
v 5.002134 0.000000 -3.501494
v 2.501067 0.000000 -2.501067
v -6.002561 0.000000 -5.502347
v -6.002561 0.000000 4.501921
v -5.502347 0.000000 0.500213
v 2.501067 0.000000 5.742449
v 6.282681 0.000000 2.501067
v -1.000427 0.000000 2.501067
v -1.500640 0.000000 -6.282681
v 4.501921 0.000000 -6.002561
v 1.500640 0.000000 -8.003414
v -5.502347 0.000000 8.003414
v 5.502347 0.000000 2.000854
v -2.501067 0.000000 5.002134
v -4.001707 0.000000 -2.501067
v -8.003414 0.000000 4.501921
v -4.501921 0.000000 -8.003414
v -4.501921 0.000000 -6.282681
v -2.000854 0.000000 5.722441
v -2.501067 0.000000 5.722441
v 5.002134 0.000000 -4.722014
v 4.501921 0.000000 -7.002987
v -1.000427 0.000000 -5.502347
v -0.720307 0.000000 -5.002134
v -0.260111 0.000000 3.001280
v -2.501067 0.000000 3.001280
v 7.002987 0.000000 2.501067
v 5.002134 0.000000 2.501067
v -4.501921 0.000000 2.501067
v -6.722867 0.000000 -5.502347
v -7.223082 0.000000 -2.501067
v -6.502774 0.000000 -3.001280
v 1.000427 0.000000 -5.502347
v 3.001280 0.000000 -0.500213
v 4.501921 0.000000 -3.001280
v 5.502347 0.000000 -3.001280
v 7.223081 0.000000 -3.501494
v -4.722014 0.000000 -2.501067
v -5.002134 0.000000 -6.282681
v -4.501921 0.000000 -7.002987
v 2.501067 0.000000 5.002134
v -1.500640 0.000000 -7.002987
v -5.502347 0.000000 -2.501067
v 6.502774 0.000000 -3.501494
v 2.501067 0.000000 -0.500213
v -6.502774 0.000000 -2.501067
v -5.502347 0.000000 2.501067
v 2.501067 0.000000 2.501067
v -1.500640 0.000000 -5.502347
v 4.501921 0.000000 -6.282681
v 4.501921 0.000000 -7.503201
v 4.501921 0.000000 -4.722014
v -0.720307 0.000000 -5.502347
v -4.501921 0.000000 -5.502347
v 1.500640 0.000000 -5.502347
v 7.503201 0.000000 -3.501494
v 8.003414 1.600683 8.003414
v -8.003414 1.600683 -8.003414
v 8.003414 1.600683 -8.003414
v -8.003414 1.600683 -2.501067
v 2.501067 1.600683 8.003414
v 8.003414 1.600683 2.000854
v 1.000427 1.600683 -8.003414
v -2.000854 1.600683 -8.003414
v -8.003414 1.600683 -3.001280
v -2.501067 1.600683 8.003414
v 4.501921 1.600683 -8.003414
v -5.002134 1.600683 -8.003414
v -2.000854 1.600683 8.003414
v -6.002561 1.600683 -0.220094
v -8.003414 1.600683 -5.502347
v -6.002561 1.600683 8.003414
v -6.002561 1.600683 0.500213
v -2.000854 1.600683 5.002134
v -6.002561 1.600683 -2.501067
v -6.002561 1.600683 5.002134
v 6.282681 1.600683 2.000854
v -2.000854 1.600683 -6.282681
v 3.001280 1.600683 8.003414
v 8.003414 1.600683 -3.001280
v -8.003414 1.600683 -5.002134
v 5.002134 1.600683 -8.003414
v 3.001280 1.600683 -3.001280
v 5.002134 1.600683 2.000854
v -4.001707 1.600683 -3.001280
v 5.002134 1.600683 -4.001707
v -8.003414 1.600683 5.002134
v 0.000000 1.600683 -5.002134
v 2.501067 1.600683 3.001280
v 3.001280 1.600683 0.220094
v 3.001280 1.600683 0.500213
v -3.781613 1.600683 3.001280
v -6.002561 1.600683 -5.002134
v 4.501921 1.600683 -5.002134
v 6.502774 1.600683 -3.001280
v -4.722014 1.600683 -3.001280
v -5.002134 1.600683 -5.502347
v 3.001280 1.600683 5.742449
v 7.002987 1.600683 2.000854
v -2.000854 1.600683 3.001280
v -2.000854 1.600683 -7.002987
v 5.002134 1.600683 -6.282681
v 5.002134 1.600683 -7.002987
v -1.000427 1.600683 3.001280
v -4.501921 1.600683 3.001280
v -6.722867 1.600683 -5.002134
v -7.223082 1.600683 -3.001280
v 5.002134 1.600683 -3.001280
v 7.223081 1.600683 -3.001280
v -5.002134 1.600683 -7.002987
v 3.001280 1.600683 5.002134
v 8.003414 1.600683 -3.501494
v 4.501921 1.600683 -4.001707
v 8.003414 1.600683 2.501067
v 0.000000 1.600683 -5.502347
v -0.260111 1.600683 2.501067
v -5.502347 1.600683 -0.220094
v 2.501067 1.600683 0.220094
v -1.500640 1.600683 -8.003414
v -3.781613 1.600683 2.501067
v -5.502347 1.600683 3.001280
v -2.000854 1.600683 -5.502347
v 4.501921 1.600683 -5.502347
v 5.002134 1.600683 -3.501494
v 2.501067 1.600683 -2.487412
v -6.002561 1.600683 -5.502347
v -6.002561 1.600683 4.501921
v -5.502347 1.600683 0.500213
v 2.501067 1.600683 5.742449
v 6.282681 1.600683 2.501067
v -1.000427 1.600683 2.501067
v -1.500640 1.600683 -6.282681
v 4.501921 1.600683 -6.002561
v 1.500640 1.600683 -8.003414
v -5.502347 1.600683 8.003414
v 5.502347 1.600683 2.000854
v -2.501067 1.600683 5.002134
v -4.001707 1.600683 -2.501067
v -8.003414 1.600683 4.501921
v -4.501921 1.600683 -8.003414
v -4.501921 1.600683 -6.282681
v -2.000854 1.600683 5.722441
v -2.501067 1.600683 5.722441
v 5.002134 1.600683 -4.722014
v 4.501921 1.600683 -7.002987
v -0.720307 1.600683 -5.502347
v -0.720307 1.600683 -5.002134
v -0.260111 1.600683 3.001280
v -2.501067 1.600683 3.001280
v 7.002987 1.600683 2.501067
v 5.002134 1.600683 2.501067
v -4.501921 1.600683 2.501067
v -6.722867 1.600683 -5.502347
v -7.223082 1.600683 -2.501067
v -6.502774 1.600683 -3.001280
v 1.000427 1.600683 -5.502347
v 3.001280 1.600683 -0.500213
v 4.501921 1.600683 -3.001280
v 5.502347 1.600683 -3.001280
v 7.223081 1.600683 -3.501494
v -4.722014 1.600683 -2.501067
v -5.002134 1.600683 -6.282681
v -4.501921 1.600683 -7.002987
v 2.501067 1.600683 5.002134
v -1.500640 1.600683 -7.002987
v -5.502347 1.600683 -2.501067
v 6.502774 1.600683 -3.501494
v 2.501067 1.600683 -0.500213
v -6.502774 1.600683 -2.501067
v -5.502347 1.600683 2.501067
v 2.501067 1.600683 2.501067
v -1.500640 1.600683 -5.502347
v 4.501921 1.600683 -6.282681
v 4.501921 1.600683 -7.503201
v 4.501921 1.600683 -4.722014
v -4.501921 1.600683 -5.502347
v 1.500640 1.600683 -5.502347
v 7.503201 1.600683 -3.501494
v 8.003414 2.000844 8.003414
v -8.003414 2.000844 -8.003414
v 8.003414 2.000844 -8.003414
v -8.003414 2.000844 -2.501067
v 2.501067 2.000844 8.003414
v 8.003414 2.000844 2.000854
v 1.000427 2.000844 -8.003414
v -2.000854 2.000844 -8.003414
v -8.003414 2.000844 -3.001280
v -2.501067 2.000844 8.003414
v 4.501921 2.000844 -8.003414
v -5.002134 2.000844 -8.003414
v -2.000854 2.000844 8.003414
v -6.002561 2.000844 -2.501067
v -8.003414 2.000844 -5.502347
v -6.002561 2.000844 8.003414
v -6.002561 2.000844 5.002134
v 5.502347 2.000844 2.000854
v 3.001280 2.000844 8.003414
v 8.003414 2.000844 -3.001280
v -8.003414 2.000844 -5.002134
v 5.002134 2.000844 -8.003414
v 3.001280 2.000844 -3.001280
v 5.002134 2.000844 2.501067
v -8.003414 2.000844 5.002134
v 4.501921 2.000844 -5.002134
v 2.501067 2.000844 3.001280
v -2.501067 2.000844 3.001280
v -5.002134 2.000844 -5.502347
v -2.000854 2.000844 3.001280
v 5.002134 2.000844 -3.001280
v 8.003414 2.000844 -3.501494
v 8.003414 2.000844 2.501067
v 1.000427 2.000844 -5.502347
v 2.501067 2.000844 2.501067
v -5.502347 2.000844 -2.501067
v 2.501067 2.000844 -2.501067
v -1.500640 2.000844 -8.003414
v -5.502347 2.000844 3.001280
v -2.000854 2.000844 -5.502347
v 4.501921 2.000844 -5.502347
v -6.002561 2.000844 4.501921
v 1.500640 2.000844 -8.003414
v -5.502347 2.000844 8.003414
v -8.003414 2.000844 4.501921
v -4.501921 2.000844 -8.003414
v -4.501921 2.000844 -5.502347
v -1.500640 2.000844 -5.502347
v 5.002134 2.000844 -3.501494
v 4.501921 2.000844 -3.001280
v 5.502347 2.000844 -3.001280
v -5.502347 2.000844 2.501067
v 1.500640 2.000844 -5.502347
vn -1.0000 0.0000 0.0000
vn 1.0000 0.0000 0.0000
vn 0.0000 0.0000 1.0000
vn 0.0000 0.0000 -1.0000
vn 0.0000 -1.0000 0.0000
vn -0.0010 -0.0043 1.0000
vn 0.0000 1.0000 0.0000
vn -0.0021 0.0341 0.9994
usemtl None
s off
f 32//1 108//1 231//1 156//1
f 15//2 2//2 125//2 138//2
f 28//1 95//1 218//1 151//1
f 95//3 74//3 197//3 218//3
f 79//2 65//2 188//2 202//2
f 94//3 58//3 181//3 217//3
f 35//3 93//3 216//3 159//3
f 84//3 8//3 131//3 207//3
f 61//3 184//3 137//3 14//3
f 34//2 33//2 157//2 158//2
f 83//2 4//2 127//2 206//2
f 198//2 171//2 48//2 75//2
f 42//4 73//4 196//4 165//4
f 18//1 71//1 194//1 140//1
f 44//3 48//3 171//3 167//3
f 69//1 112//1 235//1 192//1
f 71//4 83//4 206//4 194//4
f 73//1 5//1 128//1 196//1
f 36//3 91//3 214//3 160//3
f 145//4 199//4 76//4 22//4
f 65//3 49//3 172//3 188//3
f 120//4 90//4 213//4
f 170//3 212//3 89//3 47//3
f 177//5 230//5 208//5 229//5
f 12//1 54//1 177//1 135//1
f 88//2 46//2 169//2 211//2
f 16//3 79//3 202//3 139//3
f 107//2 84//2 207//2 230//2
f 109//2 63//2 186//2 232//2
f 78//3 11//3 134//3 201//3
f 5//4 13//4 136//4 128//4
f 54//3 107//3 230//3 177//3
f 19//2 44//2 167//2 141//2
f 53//3 24//3 147//3 176//3
f 23//2 42//2 165//2 146//2
f 56//4 123//4 245//4 179//4
f 123//4 104//4 227//4 245//4
f 52//1 28//1 151//1 175//1
f 68//2 29//2 153//2 191//2
f 77//1 67//1 190//1 200//1
f 8//1 45//1 168//1 131//1
f 37//1 119//1 242//1 161//1
f 63//4 8//4 131//4 186//4
f 181//1 124//1 246//1 278//1
f 132//1 127//1 249//1 254//1
f 233//3 228//3 282//3 281//3
f 184//2 233//2 281//2
f 230//2 207//2 291//2 292//2
f 228//3 205//3 282//3
f 179//4 245//4 277//4
f 245//4 227//4 277//4
f 149//4 134//4 256//4 267//4
f 191//4 294//4 277//4
f 132//2 148//2 266//2 254//2
f 208//2 230//2 292//2
f 147//2 179//2 277//2 265//2
f 124//4 146//4 264//4 246//4
f 190//4 244//4 298//4 286//4
f 195//2 184//2 281//2
f 244//2 201//2 288//2 298//2
f 156//1 231//1 272//1
f 193//4 220//4 274//4
f 158//2 157//2 268//2
f 165//2 178//2 268//2
f 189//4 243//4 292//4 285//4
f 231//1 196//1 272//1
f 243//2 208//2 292//2
f 177//1 229//1 274//1
f 135//1 177//1 274//1 257//1
f 210//1 133//1 255//1
f 232//2 186//2 283//2
f 199//2 232//2 283//2
f 187//4 219//4 280//4
f 176//3 147//3 265//3
f 175//1 151//1 269//1 276//1
f 191//2 153//2 267//2 294//2
f 178//2 158//2 268//2
f 229//1 164//1 274//1
f 152//4 163//4 268//4
f 218//3 197//3 269//3
f 224//2 150//2 268//2
f 217//3 181//3 278//3 269//3
f 162//3 176//3 265//3
f 155//3 161//3 271//3
f 226//3 162//3 265//3 296//3
f 130//1 223//1 279//1 252//1
f 225//3 175//3 276//3 295//3
f 183//4 198//4 280//4
f 150//4 152//4 268//4
f 182//4 213//4 293//4 279//4
f 222//4 174//4 268//4
f 174//4 132//4 254//4 268//4
f 157//2 224//2 268//2
f 148//3 173//3 271//3 266//3
f 200//1 190//1 286//1
f 242//1 180//1 271//1
f 62//1 115//1 238//1 185//1
f 22//1 66//1 189//1 145//1
f 100//4 59//4 182//4 223//4
f 115//4 60//4 183//4 238//4
f 1//4 23//4 146//4 124//4
f 24//2 56//2 179//2 147//2
f 9//2 25//2 148//2 132//2
f 40//4 99//4 222//4 163//4
f 26//4 11//4 134//4 149//4
f 78//4 7//4 130//4 201//4
f 114//2 72//2 195//2 237//2
f 82//6 69//6 192//6 205//6
f 5//3 23//3 146//3 128//3
f 24//1 6//1 129//1 147//1
f 96//4 114//4 237//4 219//4
f 15//1 25//1 148//1 138//1
f 10//4 79//4 202//4 133//4
f 26//3 3//3 126//3 149//3
f 81//3 19//3 141//3 204//3
f 20//1 14//1 137//1 142//1
f 13//2 86//2 209//2 136//2
f 9//1 4//1 127//1 132//1
f 144//2 197//2 74//2 17//2
f 185//4 157//4 33//4 62//4
f 229//4 208//4 85//4 106//4
f 58//1 1//1 124//1 181//1
f 21//1 16//1 139//1 143//1
f 83//1 30//1 154//1 206//1
f 63//3 7//3 130//3 186//3
f 84//4 12//4 135//4 207//4
f 30//3 21//3 143//3 154//3
f 93//1 81//1 204//1 216//1
f 113//3 20//3 142//3 236//3
f 87//1 10//1 133//1 210//1
f 4//3 98//3 221//3 127//3
f 61//2 110//2 233//2 184//2
f 110//3 105//3 228//3 233//3
f 102//3 52//3 175//3 225//3
f 103//3 38//3 162//3 226//3
f 121//2 85//2 208//2 243//2
f 75//4 64//4 187//4 198//4
f 17//4 80//4 203//4 144//4
f 6//4 43//4 166//4 129//4
f 38//2 111//2 234//2 162//2
f 66//4 121//4 243//4 189//4
f 39//4 27//4 150//4
f 168//5 232//5 199//5 145//5
f 25//3 50//3 173//3 148//3
f 2//3 12//3 135//3 125//3
f 205//1 152//1 27//1 82//1
f 29//4 57//4 180//4 153//4
f 3//1 56//1 179//1 126//1
f 106//1 41//1 164//1 229//1
f 47//2 26//2 149//2 170//2
f 51//4 9//4 132//4 174//4
f 232//3 168//3 45//3 109//3
f 27//4 152//4 150//4
f 122//2 78//2 201//2 244//2
f 55//2 34//2 158//2 178//2
f 92//3 32//3 156//3 215//3
f 67//4 122//4 244//4 190//4
f 7//1 100//1 223//1 130//1
f 31//3 37//3 161//3 155//3
f 116//2 76//2 199//2 239//2
f 97//4 15//4 138//4 220//4
f 111//4 68//4 191//4 234//4
f 90//4 116//4 239//4 213//4
f 80//2 103//2 226//2 203//2
f 101//2 39//2 150//2 224//2
f 10//3 13//3 136//3 133//3
f 58//2 6//2 129//2 181//2
f 117//1 77//1 200//1 240//1
f 11//1 118//1 241//1 134//1
f 41//4 70//4 193//4 164//4
f 57//1 102//1 225//1 180//1
f 118//1 89//1 212//1 241//1
f 210//4 209//4 86//4 87//4
f 269//7 278//7 251//7 263//7
f 286//7 267//7 256//7
f 255//7 258//7 275//7 273//7
f 280//7 268//7 282//7
f 249//7 259//7 268//7
f 295//7 294//7 267//7 271//7
f 281//7 282//7 268//7
f 287//7 284//7 259//7
f 262//7 284//7 287//7
f 259//7 281//7 268//7
f 269//7 263//7 296//7 276//7
f 295//7 276//7 294//7
f 249//7 268//7 254//7
f 266//7 271//7 274//7 260//7
f 270//7 262//7 287//7 290//7
f 261//7 289//7 284//7 262//7
f 259//7 297//7 281//7
f 259//7 284//7 297//7
f 284//7 273//7 280//7 297//7
f 250//7 264//7 268//7 272//7
f 272//7 268//7 280//7
f 275//7 272//7 280//7
f 285//7 293//7 283//7 253//7
f 271//7 293//7 285//7
f 271//7 267//7 286//7
f 271//7 279//7 293//7
f 273//7 275//7 280//7
f 271//7 292//7 274//7
f 271//7 285//7 292//7
f 279//7 298//7 288//7 252//7
f 271//7 298//7 279//7
f 271//7 286//7 298//7
f 276//7 296//7 294//7
f 296//7 265//7 277//7 294//7
f 274//7 292//7 291//7 257//7
f 125//3 135//3 257//3 247//3
f 186//3 130//3 252//3 283//3
f 234//4 191//4 277//4
f 227//4 234//4 277//4
f 126//1 179//1 277//1 248//1
f 203//2 226//2 296//2 263//2
f 180//1 225//1 295//1 271//1
f 133//3 136//3 258//3 255//3
f 181//2 129//2 251//2 278//2
f 192//1 235//1 282//1
f 235//1 185//1 282//1
f 186//4 131//4 253//4 283//4
f 166//4 144//4 263//4
f 131//1 168//1 253//1
f 223//4 182//4 279//4
f 140//1 194//1 287//1 259//1
f 128//4 136//4 258//4 250//4
f 137//1 140//1 259//1
f 201//3 134//3 256//3 288//3
f 205//8 192//8 282//8
f 145//1 189//1 285//1 253//1
f 221//3 236//3 259//3
f 139//3 202//3 289//3 261//3
f 236//3 142//3 259//3
f 127//3 221//3 259//3 249//3
f 206//2 127//2 249//2 290//2
f 207//3 131//3 253//3 291//3
f 201//4 130//4 252//4 288//4
f 128//3 146//3 264//3 250//3
f 147//1 129//1 251//1 265//1
f 220//4 138//4 260//4 274//4
f 138//1 148//1 266//1 260//1
f 133//4 202//4 289//4 255//4
f 164//4 193//4 274//4
f 138//2 125//2 247//2 260//2
f 149//3 126//3 248//3 267//3
f 204//1 210//1 255//1
f 206//1 154//1 270//1 290//1
f 142//1 137//1 259//1
f 136//2 209//2 258//2
f 207//4 135//4 257//4 291//4
f 194//4 206//4 290//4 287//4
f 143//1 139//1 261//1 262//1
f 202//2 188//2 284//2 289//2
f 144//4 203//4 263//4
f 129//4 166//4 263//4 251//4
f 153//2 211//2 267//2
f 237//2 195//2 281//2 297//2
f 170//2 149//2 267//2
f 219//4 237//4 297//4 280//4
f 196//1 128//1 250//1 272//1
f 214//3 155//3 271//3
f 209//2 141//2 258//2
f 215//3 156//3 272//3
f 185//1 238//1 280//1 282//1
f 141//2 167//2 275//2 258//2
f 168//1 145//1 253//1
f 238//4 183//4 280//4
f 211//2 169//2 267//2
f 169//2 170//2 267//2
f 160//3 214//3 271//3
f 197//3 217//3 269//3
f 146//2 165//2 268//2 264//2
f 216//1 204//1 255//1 273//1
f 167//3 171//3 272//3 275//3
f 188//3 172//3 273//3 284//3
f 171//3 215//3 272//3
f 172//3 159//3 273//3
f 198//4 187//4 280//4
f 159//3 216//3 273//3
f 151//1 218//1 269//1
f 239//2 199//2 283//2 293//2
f 173//3 160//3 271//3
f 213//4 239//4 293//4
f 212//1 240//1 286//1
f 163//4 222//4 268//4
f 240//1 200//1 286//1
f 134//1 241//1 286//1 256//1
f 241//1 212//1 286//1
f 154//3 143//3 262//3 270//3
f 161//1 242//1 271//1
f 184//5 195//5 140//5 137//5
f 195//4 72//4 18//4 140//4
f 222//5 236//5 221//5 174//5
f 99//1 113//1 236//1 222//1
f 174//2 221//2 98//2 51//2
f 172//5 219//5 187//5 159//5
f 49//2 96//2 219//2 172//2
f 209//5 210//5 204//5 141//5
f 171//5 198//5 183//5 215//5
f 60//1 92//1 215//1 183//1
f 165//5 196//5 231//5 178//5
f 178//3 231//3 108//3 55//3
f 157//5 185//5 235//5 224//5
f 112//3 101//3 224//3 235//3
f 166//5 217//5 197//5 144//5
f 43//1 94//1 217//1 166//1
f 176//1 227//1 104//1 53//1
f 162//5 234//5 227//5 176//5
f 46//4 117//4 240//4 169//4
f 169//5 240//5 212//5 170//5
f 153//5 180//5 242//5 211//5
f 211//3 242//3 119//3 88//3
f 163//2 228//2 105//2 40//2
f 152//5 205//5 228//5 163//5
f 59//1 31//1 155//1 182//1
f 214//5 213//5 182//5 155//5
f 91//2 120//2 213//2 214//2
f 160//1 193//1 70//1 36//1
f 50//2 97//2 220//2 173//2
f 173//5 220//5 193//5 160//5
