# Blender v2.79 (sub 0) OBJ File: 'Lamp.blend'
# www.blender.org
mtllib Lamp.mtl
o Cylinder
v -0.000000 -0.031902 -1.565046
v -0.000000 0.207597 -0.884229
v 0.265214 -0.031902 -1.534974
v 0.149842 0.207597 -0.867239
v 0.520235 -0.031902 -1.445913
v 0.293926 0.207597 -0.816921
v 0.755265 -0.031902 -1.301288
v 0.426714 0.207597 -0.735209
v 0.961269 -0.031902 -1.106654
v 0.543104 0.207597 -0.625244
v 1.130333 -0.031902 -0.869493
v 0.638622 0.207597 -0.491251
v 1.255959 -0.031902 -0.598917
v 0.709599 0.207597 -0.338380
v 1.333319 -0.031902 -0.305325
v 0.753307 0.207597 -0.172504
v 1.359440 -0.031902 0.000000
v 0.768065 0.207597 -0.000000
v 1.333319 -0.031902 0.305325
v 0.753307 0.207597 0.172504
v 1.255959 -0.031902 0.598917
v 0.709599 0.207597 0.338380
v 1.130333 -0.031902 0.869493
v 0.638622 0.207597 0.491251
v 0.961269 -0.031902 1.106655
v 0.543104 0.207597 0.625244
v 0.755265 -0.031902 1.301288
v 0.426714 0.207597 0.735210
v 0.520235 -0.031902 1.445914
v 0.293925 0.207597 0.816921
v 0.265213 -0.031902 1.534974
v 0.149842 0.207597 0.867239
v -0.000001 -0.031902 1.565046
v -0.000000 0.207597 0.884229
v -0.265214 -0.031902 1.534974
v -0.149842 0.207597 0.867239
v -0.520236 -0.031902 1.445914
v -0.293926 0.207597 0.816921
v -0.755265 -0.031902 1.301288
v -0.426714 0.207597 0.735209
v -0.961270 -0.031902 1.106654
v -0.543104 0.207597 0.625244
v -1.130334 -0.031902 0.869492
v -0.638623 0.207597 0.491251
v -1.255960 -0.031902 0.598916
v -0.709600 0.207597 0.338379
v -1.333320 -0.031902 0.305324
v -0.753307 0.207597 0.172504
v -1.359440 -0.031902 -0.000001
v -0.768065 0.207597 -0.000001
v -1.333319 -0.031902 -0.305327
v -0.753307 0.207597 -0.172505
v -1.255959 -0.031902 -0.598919
v -0.709599 0.207597 -0.338381
v -1.130333 -0.031902 -0.869494
v -0.638622 0.207597 -0.491252
v -0.961268 -0.031902 -1.106656
v -0.543103 0.207597 -0.625245
v -0.755263 -0.031902 -1.301289
v -0.426713 0.207597 -0.735210
v -0.520234 -0.031902 -1.445915
v -0.293925 0.207597 -0.816922
v -0.265212 -0.031902 -1.534974
v -0.149841 0.207597 -0.867239
v -0.000000 -0.224144 -1.565046
v 0.265214 -0.224144 -1.534974
v 0.520235 -0.224144 -1.445913
v 0.755265 -0.224144 -1.301288
v 0.961269 -0.224144 -1.106654
v 1.130333 -0.224144 -0.869493
v 1.255959 -0.224144 -0.598917
v 1.333319 -0.224144 -0.305325
v 1.359440 -0.224144 0.000000
v 1.333319 -0.224144 0.305325
v 1.255959 -0.224144 0.598917
v 1.130333 -0.224144 0.869493
v 0.961269 -0.224144 1.106655
v 0.755265 -0.224144 1.301288
v 0.520235 -0.224144 1.445914
v 0.265213 -0.224144 1.534974
v -0.000001 -0.224144 1.565046
v -0.265214 -0.224144 1.534974
v -0.520236 -0.224144 1.445914
v -0.755265 -0.224144 1.301288
v -0.961270 -0.224144 1.106654
v -1.130334 -0.224144 0.869492
v -1.255960 -0.224144 0.598916
v -1.333320 -0.224144 0.305324
v -1.359440 -0.224144 -0.000001
v -1.333319 -0.224144 -0.305327
v -1.255959 -0.224144 -0.598919
v -1.130333 -0.224144 -0.869494
v -0.961268 -0.224144 -1.106656
v -0.755263 -0.224144 -1.301289
v -0.520234 -0.224144 -1.445915
v -0.265212 -0.224144 -1.534974
v -0.000000 0.283663 -0.256973
v 0.043547 0.283663 -0.252035
v 0.085420 0.283663 -0.237412
v 0.124011 0.283663 -0.213665
v 0.157836 0.283663 -0.181707
v 0.185595 0.283663 -0.142767
v 0.206222 0.283663 -0.098339
v 0.218924 0.283663 -0.050133
v 0.223213 0.283663 -0.000000
v 0.218924 0.283663 0.050133
v 0.206222 0.283663 0.098339
v 0.185595 0.283663 0.142766
v 0.157836 0.283663 0.181707
v 0.124011 0.283663 0.213665
v 0.085420 0.283663 0.237412
v 0.043547 0.283663 0.252035
v -0.000000 0.283663 0.256973
v -0.043547 0.283663 0.252035
v -0.085420 0.283663 0.237412
v -0.124011 0.283663 0.213665
v -0.157836 0.283663 0.181707
v -0.185595 0.283663 0.142766
v -0.206222 0.283663 0.098339
v -0.218924 0.283663 0.050133
v -0.223213 0.283663 -0.000000
v -0.218924 0.283663 -0.050133
v -0.206222 0.283663 -0.098340
v -0.185595 0.283663 -0.142767
v -0.157836 0.283663 -0.181708
v -0.124011 0.283663 -0.213665
v -0.085420 0.283663 -0.237412
v -0.043546 0.283663 -0.252035
v -0.000000 8.303122 -0.256973
v 0.043547 8.303122 -0.252035
v 0.085420 8.303122 -0.237412
v 0.124011 8.303122 -0.213665
v 0.157836 8.303122 -0.181707
v 0.185595 8.303122 -0.142767
v 0.206222 8.303122 -0.098339
v 0.218924 8.303122 -0.050133
v 0.223213 8.303122 -0.000000
v 0.218924 8.303122 0.050133
v 0.206222 8.303122 0.098339
v 0.185595 8.303122 0.142766
v 0.157836 8.303122 0.181707
v 0.124011 8.303122 0.213665
v 0.085420 8.303122 0.237412
v 0.043547 8.303122 0.252035
v -0.000000 8.303122 0.256973
v -0.043547 8.303122 0.252035
v -0.085420 8.303122 0.237412
v -0.124011 8.303122 0.213665
v -0.157836 8.303122 0.181707
v -0.185595 8.303122 0.142766
v -0.206222 8.303122 0.098339
v -0.218925 8.303122 0.050133
v -0.223213 8.303122 -0.000000
v -0.218924 8.303122 -0.050133
v -0.206222 8.303122 -0.098340
v -0.185595 8.303122 -0.142767
v -0.157836 8.303122 -0.181708
v -0.124011 8.303122 -0.213665
v -0.085420 8.303122 -0.237412
v -0.043547 8.303122 -0.252035
v -0.000002 7.331881 -1.848800
v 0.367274 7.331881 -1.813275
v 0.720435 7.331881 -1.708068
v 1.045910 7.331881 -1.537220
v 1.331192 7.331881 -1.307299
v 1.565316 7.331881 -1.027138
v 1.739286 7.331881 -0.707505
v 1.846417 7.331881 -0.360683
v 1.882590 7.331881 0.000000
v 1.846417 7.331881 0.360683
v 1.739286 7.331881 0.707505
v 1.565316 7.331881 1.027139
v 1.331192 7.331881 1.307299
v 1.045910 7.331881 1.537221
v 0.720435 7.331881 1.708069
v 0.367273 7.331881 1.813276
v -0.000002 7.331881 1.848800
v -0.367278 7.331881 1.813276
v -0.720439 7.331881 1.708068
v -1.045915 7.331881 1.537221
v -1.331197 7.331881 1.307299
v -1.565321 7.331881 1.027138
v -1.739291 7.331881 0.707504
v -1.846421 7.331881 0.360682
v -1.882594 7.331881 -0.000002
v -1.846420 7.331881 -0.360685
v -1.739289 7.331881 -0.707507
v -1.565319 7.331881 -1.027139
v -1.331194 7.331881 -1.307300
v -1.045912 7.331881 -1.537222
v -0.720436 7.331881 -1.708069
v -0.367274 7.331881 -1.813276
v -0.000002 9.791238 -0.624834
v 0.124125 9.791238 -0.612828
v 0.243482 9.791238 -0.577272
v 0.353482 9.791238 -0.519531
v 0.449898 9.791238 -0.441824
v 0.529024 9.791238 -0.347139
v 0.587821 9.791238 -0.239114
v 0.624027 9.791238 -0.121899
v 0.636253 9.791238 -0.000000
v 0.624027 9.791238 0.121899
v 0.587821 9.791238 0.239114
v 0.529024 9.791238 0.347139
v 0.449898 9.791238 0.441825
v 0.353482 9.791238 0.519531
v 0.243482 9.791238 0.577272
v 0.124125 9.791238 0.612828
v -0.000003 9.791238 0.624834
v -0.124130 9.791238 0.612828
v -0.243487 9.791238 0.577271
v -0.353487 9.791238 0.519530
v -0.449903 9.791238 0.441824
v -0.529029 9.791238 0.347139
v -0.587825 9.791238 0.239113
v -0.624032 9.791238 0.121899
v -0.636257 9.791238 -0.000001
v -0.624032 9.791238 -0.121900
v -0.587825 9.791238 -0.239114
v -0.529029 9.791238 -0.347140
v -0.449902 9.791238 -0.441825
v -0.353486 9.791238 -0.519531
v -0.243486 9.791238 -0.577272
v -0.124129 9.791238 -0.612828
v -0.000001 8.378139 -0.624834
v 0.124126 8.378139 -0.612828
v 0.243484 8.378139 -0.577272
v 0.353484 8.378139 -0.519531
v 0.449899 8.378139 -0.441824
v 0.529026 8.378139 -0.347139
v 0.587822 8.378139 -0.239114
v 0.624029 8.378139 -0.121899
v 0.636254 8.378139 -0.000000
v 0.624029 8.378139 0.121899
v 0.587822 8.378139 0.239114
v 0.529026 8.378139 0.347139
v 0.449899 8.378139 0.441825
v 0.353483 8.378139 0.519531
v 0.243483 8.378139 0.577272
v 0.124126 8.378139 0.612828
v -0.000001 8.378139 0.624834
v -0.124128 8.378139 0.612828
v -0.243485 8.378139 0.577271
v -0.353485 8.378139 0.519530
v -0.449901 8.378139 0.441824
v -0.529028 8.378139 0.347139
v -0.587824 8.378139 0.239113
v -0.624030 8.378139 0.121899
v -0.636256 8.378139 -0.000001
v -0.624030 8.378139 -0.121900
v -0.587823 8.378139 -0.239114
v -0.529027 8.378139 -0.347140
v -0.449900 8.378139 -0.441825
v -0.353484 8.378139 -0.519531
v -0.243484 8.378139 -0.577272
v -0.124127 8.378139 -0.612828
vn 0.0376 0.9427 -0.3316
vn 0.1112 0.9414 -0.3184
vn 0.1801 0.9391 -0.2927
vn 0.2417 0.9360 -0.2558
vn 0.2934 0.9328 -0.2092
vn 0.3337 0.9299 -0.1549
vn 0.3612 0.9276 -0.0952
vn 0.3752 0.9264 -0.0321
vn 0.3752 0.9264 0.0321
vn 0.3612 0.9276 0.0952
vn 0.3337 0.9299 0.1549
vn 0.2934 0.9328 0.2092
vn 0.2417 0.9360 0.2558
vn 0.1801 0.9391 0.2927
vn 0.1112 0.9414 0.3184
vn 0.0376 0.9427 0.3316
vn -0.0376 0.9427 0.3316
vn -0.1112 0.9414 0.3184
vn -0.1801 0.9391 0.2927
vn -0.2417 0.9360 0.2558
vn -0.2934 0.9328 0.2092
vn -0.3337 0.9299 0.1549
vn -0.3612 0.9276 0.0952
vn -0.3752 0.9264 0.0321
vn -0.3752 0.9264 -0.0321
vn -0.3612 0.9276 -0.0952
vn -0.3337 0.9299 -0.1549
vn -0.2934 0.9328 -0.2092
vn -0.2417 0.9360 -0.2558
vn -0.1801 0.9391 -0.2927
vn 0.1330 0.9905 -0.0350
vn -0.1112 0.9414 -0.3184
vn -0.0376 0.9427 -0.3316
vn 0.5241 0.0000 -0.8517
vn 0.0000 -1.0000 0.0000
vn 0.8143 0.0000 0.5805
vn -0.8143 0.0000 0.5805
vn -0.5241 0.0000 -0.8517
vn 0.9964 0.0000 -0.0852
vn -0.1127 0.0000 0.9936
vn -0.9670 0.0000 -0.2548
vn 0.6868 0.0000 -0.7269
vn 0.6868 0.0000 0.7269
vn -0.9070 0.0000 0.4211
vn -0.3297 0.0000 -0.9441
vn 0.9964 0.0000 0.0852
vn -0.3297 0.0000 0.9441
vn -0.9070 0.0000 -0.4211
vn 0.8143 0.0000 -0.5805
vn 0.5241 0.0000 0.8517
vn -0.9670 0.0000 0.2548
vn 0.1127 0.0000 -0.9936
vn -0.1127 0.0000 -0.9936
vn 0.9670 0.0000 0.2548
vn -0.5241 0.0000 0.8517
vn -0.8143 0.0000 -0.5805
vn 0.9070 0.0000 -0.4211
vn 0.3297 0.0000 0.9441
vn -0.9964 0.0000 0.0852
vn 0.3297 0.0000 -0.9441
vn 0.9070 0.0000 0.4211
vn -0.6868 0.0000 0.7269
vn -0.6868 0.0000 -0.7269
vn 0.9670 0.0000 -0.2548
vn 0.1127 0.0000 0.9936
vn -0.9964 0.0000 -0.0852
vn 0.0136 0.9926 0.1204
vn -0.1383 0.9903 -0.0118
vn 0.0656 0.9921 -0.1066
vn 0.1075 0.9912 0.0766
vn -0.1075 0.9912 0.0766
vn -0.0656 0.9921 -0.1066
vn 0.1383 0.9903 -0.0118
vn -0.0136 0.9926 0.1204
vn -0.1330 0.9905 -0.0350
vn 0.0883 0.9917 -0.0934
vn 0.0883 0.9917 0.0934
vn -0.1226 0.9908 0.0569
vn -0.0404 0.9925 -0.1157
vn 0.1383 0.9903 0.0118
vn -0.0404 0.9925 0.1157
vn -0.1226 0.9908 -0.0569
vn 0.1075 0.9912 -0.0766
vn 0.0656 0.9921 0.1066
vn -0.1330 0.9905 0.0350
vn 0.0136 0.9926 -0.1204
vn -0.0136 0.9926 -0.1204
vn 0.1330 0.9905 0.0350
vn -0.0656 0.9921 0.1066
vn -0.1075 0.9912 -0.0766
vn 0.1226 0.9908 -0.0569
vn 0.0404 0.9925 0.1157
vn -0.1383 0.9903 0.0118
vn 0.0404 0.9925 -0.1157
vn 0.1226 0.9908 0.0569
vn -0.0883 0.9917 0.0934
vn -0.0883 0.9917 -0.0934
vn -0.4501 -0.8599 -0.2406
vn 0.4162 0.4452 0.7928
vn 0.5047 -0.8619 0.0497
vn -0.3967 -0.8583 -0.3256
vn 0.4864 -0.8612 0.1475
vn -0.3275 -0.8564 -0.3991
vn 0.4501 -0.8599 0.2406
vn -0.2447 -0.8547 -0.4578
vn -0.0512 -0.8526 0.5200
vn 0.3967 -0.8583 0.3256
vn -0.1513 -0.8534 -0.4989
vn -0.1513 -0.8534 0.4989
vn 0.3275 -0.8564 0.3991
vn -0.0512 -0.8526 -0.5200
vn -0.2447 -0.8547 0.4578
vn 0.2447 -0.8547 0.4578
vn 0.0512 -0.8526 -0.5200
vn -0.3275 -0.8564 0.3991
vn 0.1513 -0.8534 0.4989
vn 0.1513 -0.8534 -0.4989
vn -0.3967 -0.8583 0.3256
vn 0.0512 -0.8526 0.5200
vn 0.2447 -0.8547 -0.4578
vn -0.4501 -0.8599 0.2406
vn 0.3275 -0.8564 -0.3991
vn -0.4864 -0.8612 0.1475
vn 0.3967 -0.8583 -0.3256
vn -0.5047 -0.8619 0.0497
vn 0.4501 -0.8599 -0.2406
vn -0.5047 -0.8619 -0.0497
vn 0.4864 -0.8612 -0.1475
vn -0.4864 -0.8612 -0.1475
vn 0.5047 -0.8619 -0.0497
vn 0.0963 0.0000 -0.9954
vn 0.0863 0.4439 -0.8919
vn -0.6862 0.4477 -0.5734
vn 0.2558 0.4444 0.8586
vn 0.2558 0.4444 -0.8586
vn -0.5615 0.4464 -0.6967
vn 0.0863 0.4439 0.8919
vn 0.4162 0.4452 -0.7928
vn -0.4162 0.4452 -0.7928
vn -0.0863 0.4439 0.8919
vn 0.5615 0.4464 -0.6967
vn -0.2558 0.4444 -0.8586
vn -0.2558 0.4444 0.8586
vn 0.6862 0.4477 -0.5734
vn -0.0863 0.4439 -0.8919
vn -0.4162 0.4452 0.7928
vn 0.7849 0.4488 -0.4272
vn -0.5615 0.4464 0.6967
vn 0.8534 0.4497 -0.2636
vn -0.6862 0.4477 0.5734
vn 0.8884 0.4502 -0.0891
vn -0.7849 0.4488 0.4272
vn 0.8884 0.4502 0.0891
vn -0.8534 0.4497 0.2636
vn 0.8534 0.4497 0.2636
vn -0.8884 0.4502 0.0891
vn 0.7849 0.4488 0.4272
vn -0.8884 0.4502 -0.0891
vn 0.6862 0.4477 0.5734
vn -0.8534 0.4497 -0.2636
vn 0.5615 0.4464 0.6967
vn -0.7849 0.4488 -0.4272
vn 0.0000 1.0000 -0.0000
vn -0.6275 -0.0000 0.7786
vn 0.2855 0.0000 0.9584
vn 0.2855 0.0000 -0.9584
vn -0.7673 -0.0000 0.6412
vn 0.0963 0.0000 0.9954
vn 0.4648 0.0000 -0.8854
vn -0.8783 -0.0000 0.4781
vn 0.6275 0.0000 -0.7786
vn -0.9555 -0.0000 0.2951
vn 0.7673 0.0000 -0.6412
vn -0.9950 -0.0000 0.0998
vn 0.8783 0.0000 -0.4781
vn -0.9950 -0.0000 -0.0998
vn 0.9555 0.0000 -0.2951
vn -0.9555 -0.0000 -0.2951
vn 0.9950 0.0000 -0.0998
vn -0.8783 -0.0000 -0.4781
vn 0.9950 0.0000 0.0998
vn -0.7673 -0.0000 -0.6412
vn 0.9555 0.0000 0.2951
vn -0.6275 -0.0000 -0.7786
vn 0.8783 0.0000 0.4781
vn -0.4648 -0.0000 -0.8854
vn -0.0963 -0.0000 0.9954
vn 0.7673 0.0000 0.6412
vn -0.2855 -0.0000 -0.9584
vn -0.2855 -0.0000 0.9584
vn 0.6275 0.0000 0.7786
vn -0.0963 -0.0000 -0.9954
vn -0.4648 -0.0000 0.8854
vn 0.4648 0.0000 0.8854
usemtl None
s off
f 1//1 2//1 4//1 3//1
f 3//2 4//2 6//2 5//2
f 5//3 6//3 8//3 7//3
f 7//4 8//4 10//4 9//4
f 9//5 10//5 12//5 11//5
f 11//6 12//6 14//6 13//6
f 13//7 14//7 16//7 15//7
f 15//8 16//8 18//8 17//8
f 17//9 18//9 20//9 19//9
f 19//10 20//10 22//10 21//10
f 21//11 22//11 24//11 23//11
f 23//12 24//12 26//12 25//12
f 25//13 26//13 28//13 27//13
f 27//14 28//14 30//14 29//14
f 29//15 30//15 32//15 31//15
f 31//16 32//16 34//16 33//16
f 33//17 34//17 36//17 35//17
f 35//18 36//18 38//18 37//18
f 37//19 38//19 40//19 39//19
f 39//20 40//20 42//20 41//20
f 41//21 42//21 44//21 43//21
f 43//22 44//22 46//22 45//22
f 45//23 46//23 48//23 47//23
f 47//24 48//24 50//24 49//24
f 49//25 50//25 52//25 51//25
f 51//26 52//26 54//26 53//26
f 53//27 54//27 56//27 55//27
f 55//28 56//28 58//28 57//28
f 57//29 58//29 60//29 59//29
f 59//30 60//30 62//30 61//30
f 16//31 14//31 103//31 104//31
f 61//32 62//32 64//32 63//32
f 63//33 64//33 2//33 1//33
f 5//34 7//34 68//34 67//34
f 65//35 66//35 67//35 68//35 69//35 70//35 71//35 72//35 73//35 74//35 75//35 76//35 77//35 78//35 79//35 80//35 81//35 82//35 83//35 84//35 85//35 86//35 87//35 88//35 89//35 90//35 91//35 92//35 93//35 94//35 95//35 96//35
f 23//36 25//36 77//36 76//36
f 41//37 43//37 86//37 85//37
f 59//38 61//38 95//38 94//38
f 15//39 17//39 73//39 72//39
f 33//40 35//40 82//40 81//40
f 51//41 53//41 91//41 90//41
f 7//42 9//42 69//42 68//42
f 25//43 27//43 78//43 77//43
f 43//44 45//44 87//44 86//44
f 61//45 63//45 96//45 95//45
f 17//46 19//46 74//46 73//46
f 35//47 37//47 83//47 82//47
f 53//48 55//48 92//48 91//48
f 9//49 11//49 70//49 69//49
f 27//50 29//50 79//50 78//50
f 45//51 47//51 88//51 87//51
f 1//52 3//52 66//52 65//52
f 63//53 1//53 65//53 96//53
f 19//54 21//54 75//54 74//54
f 37//55 39//55 84//55 83//55
f 55//56 57//56 93//56 92//56
f 11//57 13//57 71//57 70//57
f 29//58 31//58 80//58 79//58
f 47//59 49//59 89//59 88//59
f 3//60 5//60 67//60 66//60
f 21//61 23//61 76//61 75//61
f 39//62 41//62 85//62 84//62
f 57//63 59//63 94//63 93//63
f 13//64 15//64 72//64 71//64
f 31//65 33//65 81//65 80//65
f 49//66 51//66 90//66 89//66
f 105//39 104//39 136//39 137//39
f 34//67 32//67 112//67 113//67
f 52//68 50//68 121//68 122//68
f 8//69 6//69 99//69 100//69
f 26//70 24//70 108//70 109//70
f 44//71 42//71 117//71 118//71
f 62//72 60//72 126//72 127//72
f 18//73 16//73 104//73 105//73
f 36//74 34//74 113//74 114//74
f 54//75 52//75 122//75 123//75
f 10//76 8//76 100//76 101//76
f 28//77 26//77 109//77 110//77
f 46//78 44//78 118//78 119//78
f 64//79 62//79 127//79 128//79
f 20//80 18//80 105//80 106//80
f 38//81 36//81 114//81 115//81
f 56//82 54//82 123//82 124//82
f 12//83 10//83 101//83 102//83
f 30//84 28//84 110//84 111//84
f 48//85 46//85 119//85 120//85
f 4//86 2//86 97//86 98//86
f 2//87 64//87 128//87 97//87
f 22//88 20//88 106//88 107//88
f 40//89 38//89 115//89 116//89
f 58//90 56//90 124//90 125//90
f 14//91 12//91 102//91 103//91
f 32//92 30//92 111//92 112//92
f 50//93 48//93 120//93 121//93
f 6//94 4//94 98//94 99//94
f 24//95 22//95 107//95 108//95
f 42//96 40//96 116//96 117//96
f 60//97 58//97 125//97 126//97
f 140//98 139//98 171//98 172//98
f 119//44 118//44 150//44 151//44
f 106//46 105//46 137//46 138//46
f 120//51 119//51 151//51 152//51
f 107//54 106//54 138//54 139//54
f 121//59 120//59 152//59 153//59
f 108//61 107//61 139//61 140//61
f 122//66 121//66 153//66 154//66
f 109//36 108//36 140//36 141//36
f 123//41 122//41 154//41 155//41
f 110//43 109//43 141//43 142//43
f 124//48 123//48 155//48 156//48
f 111//50 110//50 142//50 143//50
f 98//52 97//52 129//52 130//52
f 125//56 124//56 156//56 157//56
f 112//58 111//58 143//58 144//58
f 99//60 98//60 130//60 131//60
f 126//63 125//63 157//63 158//63
f 113//65 112//65 144//65 145//65
f 100//34 99//34 131//34 132//34
f 127//38 126//38 158//38 159//38
f 114//40 113//40 145//40 146//40
f 101//42 100//42 132//42 133//42
f 128//45 127//45 159//45 160//45
f 115//47 114//47 146//47 147//47
f 102//49 101//49 133//49 134//49
f 97//53 128//53 160//53 129//53
f 116//55 115//55 147//55 148//55
f 103//57 102//57 134//57 135//57
f 117//62 116//62 148//62 149//62
f 104//64 103//64 135//64 136//64
f 118//37 117//37 149//37 150//37
f 175//99 174//99 206//99 207//99
f 154//100 153//100 185//100 186//100
f 141//101 140//101 172//101 173//101
f 155//102 154//102 186//102 187//102
f 142//103 141//103 173//103 174//103
f 156//104 155//104 187//104 188//104
f 143//105 142//105 174//105 175//105
f 130//106 129//106 161//106 162//106
f 157//107 156//107 188//107 189//107
f 144//108 143//108 175//108 176//108
f 131//109 130//109 162//109 163//109
f 158//110 157//110 189//110 190//110
f 145//111 144//111 176//111 177//111
f 132//112 131//112 163//112 164//112
f 159//113 158//113 190//113 191//113
f 146//114 145//114 177//114 178//114
f 133//115 132//115 164//115 165//115
f 160//116 159//116 191//116 192//116
f 147//117 146//117 178//117 179//117
f 134//118 133//118 165//118 166//118
f 129//119 160//119 192//119 161//119
f 148//120 147//120 179//120 180//120
f 135//121 134//121 166//121 167//121
f 149//122 148//122 180//122 181//122
f 136//123 135//123 167//123 168//123
f 150//124 149//124 181//124 182//124
f 137//125 136//125 168//125 169//125
f 151//126 150//126 182//126 183//126
f 138//127 137//127 169//127 170//127
f 152//128 151//128 183//128 184//128
f 139//129 138//129 170//129 171//129
f 153//130 152//130 184//130 185//130
f 210//131 209//131 241//131 242//131
f 162//132 161//132 193//132 194//132
f 189//133 188//133 220//133 221//133
f 176//134 175//134 207//134 208//134
f 163//135 162//135 194//135 195//135
f 190//136 189//136 221//136 222//136
f 177//137 176//137 208//137 209//137
f 164//138 163//138 195//138 196//138
f 191//139 190//139 222//139 223//139
f 178//140 177//140 209//140 210//140
f 165//141 164//141 196//141 197//141
f 192//142 191//142 223//142 224//142
f 179//143 178//143 210//143 211//143
f 166//144 165//144 197//144 198//144
f 161//145 192//145 224//145 193//145
f 180//146 179//146 211//146 212//146
f 167//147 166//147 198//147 199//147
f 181//148 180//148 212//148 213//148
f 168//149 167//149 199//149 200//149
f 182//150 181//150 213//150 214//150
f 169//151 168//151 200//151 201//151
f 183//152 182//152 214//152 215//152
f 170//153 169//153 201//153 202//153
f 184//154 183//154 215//154 216//154
f 171//155 170//155 202//155 203//155
f 185//156 184//156 216//156 217//156
f 172//157 171//157 203//157 204//157
f 186//158 185//158 217//158 218//158
f 173//159 172//159 204//159 205//159
f 187//160 186//160 218//160 219//160
f 174//161 173//161 205//161 206//161
f 188//162 187//162 219//162 220//162
f 226//163 225//163 256//163 255//163 254//163 253//163 252//163 251//163 250//163 249//163 248//163 247//163 246//163 245//163 244//163 243//163 242//163 241//163 240//163 239//163 238//163 237//163 236//163 235//163 234//163 233//163 232//163 231//163 230//163 229//163 228//163 227//163
f 197//164 196//164 228//164 229//164
f 224//165 223//165 255//165 256//165
f 211//166 210//166 242//166 243//166
f 198//167 197//167 229//167 230//167
f 193//168 224//168 256//168 225//168
f 212//169 211//169 243//169 244//169
f 199//170 198//170 230//170 231//170
f 213//171 212//171 244//171 245//171
f 200//172 199//172 231//172 232//172
f 214//173 213//173 245//173 246//173
f 201//174 200//174 232//174 233//174
f 215//175 214//175 246//175 247//175
f 202//176 201//176 233//176 234//176
f 216//177 215//177 247//177 248//177
f 203//178 202//178 234//178 235//178
f 217//179 216//179 248//179 249//179
f 204//180 203//180 235//180 236//180
f 218//181 217//181 249//181 250//181
f 205//182 204//182 236//182 237//182
f 219//183 218//183 250//183 251//183
f 206//184 205//184 237//184 238//184
f 220//185 219//185 251//185 252//185
f 207//186 206//186 238//186 239//186
f 194//187 193//187 225//187 226//187
f 221//188 220//188 252//188 253//188
f 208//189 207//189 239//189 240//189
f 195//190 194//190 226//190 227//190
f 222//191 221//191 253//191 254//191
f 209//192 208//192 240//192 241//192
f 196//193 195//193 227//193 228//193
f 223//194 222//194 254//194 255//194
